# AST/ASF file generated using VICON BodyLanguage
# -----------------------------------------------
:version 1.10
:name VICON
:units
  mass 1.0
  length 0.45
  angle deg
:documentation
   .ast/.asf automatically generated from VICON data using
   VICON BodyBuilder and BodyLanguage model FoxedUp or BRILLIANT.MOD
:root
   order TX TY TZ RX RY RZ
   axis XYZ
   position 0 0 0  
   orientation 0 0 0 
:bonedata
  begin
     id 1 
     name lhipjoint
     direction 0.602128 -0.715006 0.355257 
     length 2.21237 
     axis 0 0 0  XYZ
  end
  begin
     id 2 
     name lfemur
     direction 0.34202 -0.939693 0  
     length 6.71649  
     axis 0 0 20  XYZ
    dof rx ry rz
    limits (-160.0 20.0)
           (-70.0 70.0)
           (-60.0 70.0)
  end
  begin
     id 3 
     name ltibia
     direction 0.34202 -0.939693 0   
     length 6.97123   
     axis 0 0 20   XYZ
    dof rx
    limits (-10.0 170.0)
  end
  begin
     id 4 
     name lfoot
     direction 0.0655697 -0.180151 0.981451   
     length 1.80924   
     axis -90 7.62852e-016 20   XYZ
    dof rx rz
    limits (-45.0 90.0)
           (-70.0 20.0)
  end
  begin
     id 5 
     name ltoes
     direction 1.53545e-011 -4.21827e-011 1   
     length 0.916331   
     axis -90 7.62852e-016 20   XYZ
    dof rx
    limits (-90.0 20.0)
  end
  begin
     id 6 
     name rhipjoint
     direction -0.625414 -0.698792 0.347201   
     length 2.2637  
     axis 0 0 0  XYZ 
  end
  begin
     id 7 
     name rfemur
     direction -0.34202 -0.939693 0   
     length 7.07595   
     axis 0 0 -20   XYZ
    dof rx ry rz
    limits (-160.0 20.0)
           (-70.0 70.0)
           (-70.0 60.0)
  end
  begin
     id 8 
     name rtibia
     direction -0.34202 -0.939693 0   
     length 7.22924   
     axis 0 0 -20   XYZ
    dof rx
    limits (-10.0 170.0)
 end
 begin
     id 9 
     name rfoot
     direction -0.0766747 -0.210662 0.974547   
     length 1.98482  
     axis -90 -7.62852e-016 -20   XYZ
    dof rx rz
    limits (-45.0 90.0)
           (-20.0 70.0)
  end
  begin
     id 10 
     name rtoes
     direction -1.53532e-011 -4.21867e-011 1   
     length 0.999842   
     axis -90 -7.62852e-016 -20   XYZ
    dof rx
    limits (-90.0 20.0)
  end
  begin
     id 11 
     name lowerback
     direction -0.0224668 0.997354 -0.0691422   
     length 2.09945   
     axis 0 0 0   XYZ
    dof rx ry rz
    limits (-20.0 45.0)
           (-30.0 30.0)
           (-30.0 30.0)
  end
  begin
     id 12 
     name upperback
     direction 0.0134698 0.998451 -0.0539888   
     length 2.09758   
     axis 0 0 0   XYZ
    dof rx ry rz
    limits (-20.0 45.0)
           (-30.0 30.0)
           (-30.0 30.0)
  end
  begin
     id 13 
     name thorax
     direction 0.0241905 0.99948 -0.0213333   
     length 2.10428   
     axis 0 0 0   XYZ
    dof rx ry rz
    limits (-20.0 45.0)
           (-30.0 30.0)
           (-30.0 30.0)
  end
  begin
     id 14 
     name lowerneck
     direction -0.00866847 0.995978 0.0891737   
     length 1.3959   
     axis 0 0 0   XYZ
    dof rx ry rz
    limits (-20.0 45.0)
           (-30.0 30.0)
           (-30.0 30.0)
  end
  begin
     id 15 
     name upperneck
     direction 0.0680679 0.992203 0.104404   
     length 1.39452   
     axis 0 0 0   XYZ
    dof rx ry rz
    limits (-20.0 45.0)
           (-30.0 30.0)
           (-30.0 30.0)
  end
  begin
     id 16
     name head
     direction 0.0242216 0.999358 0.0264054  
     length 1.40433  
     axis 0 0 0   XYZ
    dof rx ry rz
    limits (-20.0 45.0)
           (-30.0 30.0)
           (-30.0 30.0)
  end
  begin
     id 17 
     name lclavicle
     direction 0.929368 0.362991 -0.0671771  
     length 3.04887  
     axis 0 0 0   XYZ
    dof ry rz
    limits (-20.0 10.0)
           (0.0 20.0)
  end
  begin
     id 18 
     name lhumerus
     direction 1 -4.48967e-011 -7.13741e-028   
     length 4.77195   
     axis -180 -30 -90   XYZ
    dof rx ry rz
    limits (-60.0 90.0)
           (-90.0 90.0)
           (-90.0 90.0)
  end
  begin
     id 19
     name lradius
     direction 1 -4.48977e-011 3.60404e-027   
     length 2.98444   
     axis -180 -30 -90   XYZ
    dof rx
    limits (-10.0 170.0)
  end
  begin
     id 20
     name lwrist
     direction 1 -4.48997e-011 7.54877e-027   
     length 1.49222   
     axis -7.18178e-015 90 90   XYZ
    dof ry
    limits (-180.0 0.0)
 end
  begin
     id 21 
     name lhand
     direction 1 -4.489e-011 1.51105e-026   
     length 0.992285   
     axis -9.63605e-015 90 90   XYZ
    dof rx rz
    limits (-90.0 90.0)
           (-45.0 45.0)
  end
  begin
     id 22 
     name lfingers
     direction 1 -4.48998e-011 3.01948e-026   
     length 0.800006   
     axis -1.92718e-014 90 90   XYZ
    dof rx
    limits (0.0 90.0)
  end
  begin
     id 23
     name lthumb
     direction 0.707107 -6.34881e-011 0.707107   
     length 1.14865   
     axis -90 45 -3.53137e-014   XYZ
    dof rx rz
    limits (-45.0 45.0)
           (-45.0 45.0)
  end
  begin
     id 24 
     name rclavicle
     direction -0.945672 0.324529 0.0196374   
     length 3.4236  
     axis 0 0 0   XYZ 
    dof ry rz
    limits (-10.0 20.0)
           (-20.0 0.0)
  end
  begin
     id 25 
     name rhumerus
     direction -1 -4.4896e-011 1.02757e-029  
     length 4.62052   
     axis -180 30 90   XYZ
    dof rx ry rz
    limits (-90.0 60.0)
           (-90.0 90.0)
           (-90.0 90.0)
  end
  begin
     id 26 
     name rradius
     direction -1 -4.48982e-011 3.85962e-027   
     length 2.95332   
     axis -180 30 90   XYZ
    dof rx
    limits (-10.0 170.0)
  end
  begin
     id 27 
     name rwrist
     direction -1 -4.48961e-011 7.55118e-027   
     length 1.47666   
     axis -7.18178e-015 -90 -90   XYZ
    dof ry
    limits (-180.0 0.0)
  end
  begin
     id 28
     name rhand
     direction -1 -4.48984e-011 1.50994e-026   
     length 0.990956   
     axis -9.63605e-015 -90 -90   XYZ
    dof rx rz
    limits (-90.0 90.0)
           (-45.0 45.0)
  end
  begin
     id 29
     name rfingers
     direction -1 -4.4892e-011 3.02158e-026   
     length 0.798934   
     axis -1.92718e-014 -90 -90   XYZ
    dof rx
    limits (0.0 90.0)
  end
  begin
     id 30
     name rthumb
     direction -0.707107 -6.34916e-011 0.707107   
     length 1.14711   
     axis -90 -45 3.53137e-014   XYZ
    dof rx rz
    limits (-45.0 45.0)
           (-45.0 45.0)
  end
:hierarchy
  begin
    root lhipjoint rhipjoint lowerback
    lhipjoint lfemur
    lfemur ltibia
    ltibia lfoot
    lfoot ltoes
    rhipjoint rfemur
    rfemur rtibia
    rtibia rfoot
    rfoot rtoes
    lowerback upperback
    upperback thorax
    thorax lowerneck lclavicle rclavicle
    lowerneck upperneck
    upperneck head
    lclavicle lhumerus
    lhumerus lradius
    lradius lwrist
    lwrist lhand lthumb
    lhand lfingers
    rclavicle rhumerus
    rhumerus rradius
    rradius rwrist
    rwrist rhand rthumb
    rhand rfingers
  end

#!OML:ASF H:\ManfredObstacles\Project 1\Capture day 1\Session 1\Male.ASF
:FULLY-SPECIFIED
:DEGREES
210
root 0.462259 15.9193 33.9077 -171.454 -10.7065 -180.997
lowerback -10.3992 -4.37757 -4.91131
upperback 1.37794 -5.30846 1.30559
thorax 7.883 -2.83666 3.21393
lowerneck 1.14559 -2.6861 -5.42304
upperneck -5.7036 -3.06293 9.44874
head -1.79372 -1.52356 4.14658
rclavicle -6.73569e-014 1.78906e-015
rhumerus -50.5883 -33.5351 -59.0411
rradius 22.247
rwrist 40.855
rhand 1.90509 -3.82727
rfingers 7.12502
rthumb 27.4138 -31.8529
lclavicle -6.73569e-014 1.78906e-015
lhumerus -30.2609 7.89324 86.592
lradius 26.4279
lwrist -22.0067
lhand -7.71501 9.34598
lfingers 7.12502
lthumb 18.183 38.5161
rfemur -35.4237 -3.75633 19.7635
rtibia 29.4955
rfoot -10.9335 2.9932
rtoes 2.38237
lfemur 0.220768 -7.64179 -21.1088
ltibia 23.7134
lfoot -2.28062 -13.464
ltoes 11.7346
211
root 0.494519 15.9408 33.6879 -171.598 -10.2805 -180.812
lowerback -10.435 -4.24273 -4.67982
upperback 1.36247 -5.15985 1.34112
thorax 7.85273 -2.75448 3.1491
lowerneck 0.937465 -2.60459 -5.4519
upperneck -5.64663 -2.95712 9.34071
head -1.74657 -1.46352 4.10639
rclavicle -1.46542e-014 8.49804e-015
rhumerus -50.233 -33.6321 -59.241
rradius 22.2567
rwrist 41.2817
rhand 2.06397 -3.75195
rfingers 7.12502
rthumb 27.5658 -31.7534
lclavicle -1.46542e-014 8.49804e-015
lhumerus -30.6401 8.76141 86.1824
lradius 26.0618
lwrist -22.4151
lhand -7.76594 9.00983
lfingers 7.12502
lthumb 18.134 38.1845
rfemur -34.7097 -4.28168 20.4807
rtibia 29.758
rfoot -11.6273 3.93953
rtoes 5.38559
lfemur -1.04826 -7.65059 -20.931
ltibia 27.6724
lfoot -0.926612 -12.0962
ltoes 10.7734
212
root 0.531906 15.9737 33.4739 -171.659 -10.0382 -180.857
lowerback -10.4377 -4.22567 -4.82984
upperback 1.31969 -5.12347 1.40717
thorax 7.82537 -2.74423 3.31111
lowerneck 0.86594 -2.51378 -5.50571
upperneck -5.74401 -2.84171 9.13341
head -1.77672 -1.40172 4.0428
rclavicle -2.43263e-014 3.67752e-015
rhumerus -49.4488 -32.9997 -60.0952
rradius 22.5116
rwrist 41.0577
rhand 2.28465 -3.75214
rfingers 7.12502
rthumb 27.7768 -31.7197
lclavicle -2.43263e-014 3.67752e-015
lhumerus -31.0273 9.08502 85.9962
lradius 25.8212
lwrist -22.2874
lhand -7.71326 8.90424
lfingers 7.12502
lthumb 18.1847 38.0742
rfemur -33.9329 -4.90499 20.9333
rtibia 29.843
rfoot -12.4075 4.84291
rtoes 7.57508
lfemur -2.72874 -7.40926 -20.9286
ltibia 31.9906
lfoot 1.35601 -10.3485
ltoes 9.96515
213
root 0.568959 16.0014 33.2687 -171.649 -9.90946 -180.728
lowerback -10.4531 -4.17336 -4.7251
upperback 1.19614 -5.07319 1.45834
thorax 7.69079 -2.71288 3.32007
lowerneck 0.93268 -2.43969 -5.60936
upperneck -5.84989 -2.74396 9.08923
head -1.83141 -1.35251 4.05078
rclavicle 9.65348e-015 -4.27387e-015
rhumerus -48.6076 -31.9006 -61.4398
rradius 22.9538
rwrist 40.0472
rhand 2.35559 -3.79638
rfingers 7.12502
rthumb 27.8446 -31.753
lclavicle 9.65348e-015 -4.27387e-015
lhumerus -31.3813 8.88437 85.8423
lradius 25.5611
lwrist -22.2235
lhand -7.43488 8.87689
lfingers 7.12502
lthumb 18.4525 38.0217
rfemur -33.2604 -5.52236 21.5585
rtibia 29.8648
rfoot -13.8323 5.64213
rtoes 10.048
lfemur -4.86566 -6.70522 -20.5886
ltibia 36.532
lfoot 4.04225 -8.91314
ltoes 4.92948
214
root 0.603273 16.0309 33.0719 -171.554 -9.79342 -180.235
lowerback -10.5213 -3.98841 -4.09891
upperback 0.993037 -4.91254 1.49616
thorax 7.44133 -2.60391 3.04346
lowerneck 0.873558 -2.42762 -5.63297
upperneck -5.66504 -2.73833 9.13317
head -1.75958 -1.34878 4.06551
rclavicle -6.8823e-014 1.77912e-014
rhumerus -47.9156 -30.6054 -63.0654
rradius 23.6473
rwrist 38.5632
rhand 2.28116 -3.91483
rfingers 7.12502
rthumb 27.7734 -31.8829
lclavicle -6.8823e-014 1.77912e-014
lhumerus -31.6885 8.42064 85.6696
lradius 25.284
lwrist -22.5081
lhand -7.07366 8.83122
lfingers 7.12502
lthumb 18.8 37.9427
rfemur -32.6716 -5.9878 22.5353
rtibia 29.7341
rfoot -15.5894 6.30812
rtoes 12.9951
lfemur -7.45979 -5.89963 -19.805
ltibia 41.1994
lfoot 6.08289 -8.61049
ltoes -10.4194
215
root 0.636878 16.0539 32.8883 -171.555 -9.60494 -180.244
lowerback -10.2907 -3.83909 -4.08144
upperback 0.847762 -4.72478 1.46227
thorax 7.13226 -2.50531 3.05107
lowerneck 0.897289 -2.42042 -5.54886
upperneck -5.73 -2.73204 8.98068
head -1.78799 -1.34609 3.9966
rclavicle 8.3912e-014 -3.37934e-015
rhumerus -47.1004 -29.0686 -64.7937
rradius 24.5549
rwrist 36.9443
rhand 2.1949 -4.20778
rfingers 7.12502
rthumb 27.691 -32.1892
lclavicle 8.3912e-014 -3.37934e-015
lhumerus -31.8677 7.97941 85.6839
lradius 25.1419
lwrist -22.7861
lhand -6.85184 8.86876
lfingers 7.12502
lthumb 19.0133 37.9594
rfemur -31.8911 -6.50033 22.9194
rtibia 29.4841
rfoot -16.4653 7.02319
rtoes 14.3626
lfemur -9.95472 -5.08553 -19.6549
ltibia 45.7929
lfoot 7.82834 -7.19544
ltoes -3.07767
216
root 0.662431 16.073 32.7116 -171.542 -9.43791 -179.737
lowerback -10.2354 -3.67795 -3.5194
upperback 0.775728 -4.59672 1.61831
thorax 6.9786 -2.42361 2.92968
lowerneck 0.947864 -2.37263 -5.5908
upperneck -6.04003 -2.65327 8.85347
head -1.90658 -1.30407 3.96715
rclavicle -3.93345e-014 9.93923e-016
rhumerus -46.0924 -27.3642 -66.5544
rradius 25.5503
rwrist 35.0261
rhand 1.99431 -4.48467
rfingers 7.12502
rthumb 27.4991 -32.4967
lclavicle -3.93345e-014 9.93923e-016
lhumerus -31.8432 7.74797 85.7318
lradius 25.0944
lwrist -23.1053
lhand -6.75104 8.51098
lfingers 7.12502
lthumb 19.1102 37.5921
rfemur -31.141 -7.1398 23.8698
rtibia 29.0662
rfoot -16.6581 7.92829
rtoes 15.0649
lfemur -12.5558 -4.31775 -19.0375
ltibia 50.1451
lfoot 8.58232 -6.58492
ltoes 14.9292
217
root 0.685373 16.0934 32.5443 -171.588 -9.16618 -179.194
lowerback -10.1283 -3.47433 -2.88955
upperback 0.776283 -4.41855 1.75411
thorax 6.86415 -2.31648 2.75697
lowerneck 0.824096 -2.32708 -5.69017
upperneck -6.21408 -2.57507 8.80786
head -1.94723 -1.25712 3.97077
rclavicle 9.75287e-015 1.31198e-014
rhumerus -45.0121 -25.8041 -68.2569
rradius 26.4834
rwrist 33.1393
rhand 1.70919 -4.56869
rfingers 7.12502
rthumb 27.2264 -32.6238
lclavicle 9.75287e-015 1.31198e-014
lhumerus -31.6393 7.69297 85.6665
lradius 24.9852
lwrist -23.5835
lhand -6.77155 8.04222
lfingers 7.12502
lthumb 19.0905 37.1253
rfemur -30.3632 -7.46067 24.7539
rtibia 28.6569
rfoot -16.8711 8.50758
rtoes 15.4398
lfemur -14.9809 -3.66061 -18.4733
ltibia 53.9876
lfoot 7.62525 -3.9807
ltoes 1.85557
218
root 0.707199 16.115 32.3893 -171.75 -8.84319 -178.857
lowerback -9.84683 -3.2555 -2.50781
upperback 0.856551 -4.18269 1.80508
thorax 6.74677 -2.18843 2.64908
lowerneck 0.727239 -2.28799 -5.71316
upperneck -6.39062 -2.50078 8.77986
head -1.99389 -1.21371 3.96638
rclavicle 1.03989e-014 -1.23246e-014
rhumerus -43.8574 -24.7427 -69.6833
rradius 27.1426
rwrist 32.021
rhand 1.48663 -4.59546
rfingers 7.12502
rthumb 27.0135 -32.6838
lclavicle 1.03989e-014 -1.23246e-014
lhumerus -31.2884 7.79038 85.5804
lradius 24.7896
lwrist -24.143
lhand -7.01709 7.92021
lfingers 7.12502
lthumb 18.8544 37.0264
rfemur -29.4539 -7.44971 25.2874
rtibia 28.2655
rfoot -16.6013 8.72277
rtoes 13.5927
lfemur -17.0824 -3.21331 -18.1872
ltibia 57.1762
lfoot 5.5551 -1.85771
ltoes 2.4953
